<?xml version="1.0" encoding="utf-8"?>
<!-- Generator: Adobe Illustrator 24.3.0, SVG Export Plug-In . SVG Version: 6.00 Build 0)  -->
<svg version="1.1" id="Vrstva_1" xmlns="http://www.w3.org/2000/svg" xmlns:xlink="http://www.w3.org/1999/xlink" x="0px" y="0px"
	 viewBox="0 0 287.3 52" style="enable-background:new 0 0 287.3 52;" xml:space="preserve">
<style type="text/css">
	.st0{fill-rule:evenodd;clip-rule:evenodd;fill:#FFFFFF;}
	.st1{filter:url(#Adobe_OpacityMaskFilter);}
	.st2{mask:url(#mask-2_1_);fill-rule:evenodd;clip-rule:evenodd;fill:#F03233;}
	.st3{fill:#F03233;}
</style>
<desc>Created with Sketch.</desc>
<g id="Page-1">
	<g id="Performax-2" transform="translate(-194.000000, -43.000000)">
		<g id="performax-logo" transform="translate(194.000000, 43.000000)">
			<g id="Group-26" transform="translate(64.104639, 9.143535)">
				<path id="Fill-13" class="st0" d="M0.2,8.6c0-0.8,0.4-1.2,1.2-1.2h5.9c1.3,0,2.4,0.5,3.3,1.4c0.9,0.9,1.4,2,1.4,3.3v7
					c0,1.3-0.5,2.4-1.4,3.3c-0.9,0.9-2,1.4-3.3,1.4H2.6v5.8c0,0.8-0.4,1.2-1.2,1.2c-0.8,0-1.2-0.4-1.2-1.2V8.6z M2.6,9.8v11.7h4.7
					c0.7,0,1.2-0.2,1.7-0.7c0.5-0.5,0.7-1,0.7-1.7v-7c0-0.7-0.2-1.2-0.7-1.7C8.5,10,8,9.8,7.3,9.8H2.6z"/>
				<path id="Fill-15" class="st0" d="M17.2,16.8v2.3c0,0.6,0.2,1.2,0.7,1.6c0.5,0.5,1,0.7,1.7,0.7h5.9c0.8,0,1.2,0.4,1.2,1.2
					c0,0.8-0.4,1.2-1.2,1.2h-5.9c-1.3,0-2.4-0.5-3.3-1.4c-0.9-0.9-1.4-2-1.4-3.3v-5.8c0-1.6,0.6-3,1.7-4.1c1.1-1.1,2.5-1.7,4.2-1.7
					c1.7,0,3,0.6,4.2,1.7c1.1,1.1,1.7,2.5,1.7,4.1v3.5H17.2z M20.8,9.8c-1,0-1.8,0.3-2.5,1c-0.7,0.7-1,1.5-1,2.5v1.2h7.1v-1.2
					c0-1-0.3-1.8-1-2.5C22.6,10.1,21.7,9.8,20.8,9.8L20.8,9.8z"/>
				<path id="Fill-16" class="st0" d="M29.5,8.6c0-0.8,0.4-1.2,1.2-1.2h7.1c0.8,0,1.2,0.4,1.2,1.2v2.3c0,0.8-0.4,1.2-1.2,1.2
					c-0.8,0-1.2-0.4-1.2-1.2V9.8h-4.7v12.8c0,0.8-0.4,1.2-1.2,1.2c-0.8,0-1.2-0.4-1.2-1.2V8.6z"/>
				<path id="Fill-17" class="st0" d="M43,7.4h1.2V5.1c0-1.3,0.5-2.4,1.4-3.3c0.9-0.9,2-1.4,3.3-1.4h1.2c0.8,0,1.2,0.4,1.2,1.2
					s-0.4,1.2-1.2,1.2h-1.2c-0.7,0-1.2,0.2-1.7,0.7s-0.7,1-0.7,1.7v2.3h3.5c0.8,0,1.2,0.4,1.2,1.2c0,0.8-0.4,1.2-1.2,1.2h-3.5v12.8
					c0,0.8-0.4,1.2-1.2,1.2c-0.8,0-1.2-0.4-1.2-1.2V9.8H43c-0.8,0-1.2-0.4-1.2-1.2C41.9,7.8,42.3,7.4,43,7.4"/>
				<path id="Fill-18" class="st0" d="M54.2,17.9v-4.7c0-1.6,0.6-3,1.7-4.1c1.1-1.1,2.5-1.7,4.2-1.7c1.7,0,3,0.6,4.2,1.7
					c1.1,1.1,1.7,2.5,1.7,4.1v4.7c0,1.6-0.6,3-1.7,4.1c-1.1,1.1-2.5,1.7-4.2,1.7s-3-0.6-4.2-1.7C54.8,20.9,54.2,19.5,54.2,17.9
					 M63.6,17.9v-4.7c0-1-0.3-1.8-1-2.5c-0.7-0.7-1.5-1-2.5-1c-1,0-1.8,0.3-2.5,1c-0.7,0.7-1,1.5-1,2.5v4.7c0,1,0.3,1.8,1,2.5
					c0.7,0.7,1.5,1,2.5,1c1,0,1.8-0.3,2.5-1C63.3,19.7,63.6,18.9,63.6,17.9"/>
				<path id="Fill-19" class="st0" d="M68.9,8.6c0-0.8,0.4-1.2,1.2-1.2h7.1c0.8,0,1.2,0.4,1.2,1.2v2.3c0,0.8-0.4,1.2-1.2,1.2
					c-0.8,0-1.2-0.4-1.2-1.2V9.8h-4.7v12.8c0,0.8-0.4,1.2-1.2,1.2c-0.8,0-1.2-0.4-1.2-1.2V8.6z"/>
				<path id="Fill-20" class="st0" d="M146.4,7.4H157c1.3,0,2.4,0.5,3.3,1.4c0.9,0.9,1.4,2,1.4,3.3v10.5c0,0.8-0.4,1.2-1.2,1.2
					c-0.8,0-1.2-0.4-1.2-1.2V12.1c0-0.7-0.2-1.2-0.7-1.7c-0.5-0.4-1-0.7-1.7-0.7h-2.4v12.8c0,0.8-0.4,1.2-1.2,1.2
					c-0.8,0-1.2-0.4-1.2-1.2V9.8h-4.7v12.8c0,0.8-0.4,1.2-1.2,1.2c-0.8,0-1.2-0.4-1.2-1.2v-14C145.2,7.8,145.6,7.4,146.4,7.4"/>
				<path id="Fill-21" class="st0" d="M169.3,23.8c-1.3,0-2.4-0.5-3.3-1.4c-0.9-0.9-1.4-2-1.4-3.3c0-0.8,0.2-1.6,0.6-2.4
					c0.9-1.5,2.3-2.3,4.1-2.3h4.7v-2.3c0-0.7-0.2-1.2-0.7-1.7c-0.5-0.4-1-0.7-1.7-0.7h-4.7c-0.8,0-1.2-0.4-1.2-1.2
					c0-0.8,0.4-1.2,1.2-1.2h4.7c1.3,0,2.4,0.5,3.3,1.4c0.9,0.9,1.4,2,1.4,3.3v10.5c0,0.8-0.4,1.2-1.2,1.2H169.3z M174,16.8h-4.7
					c-0.7,0-1.2,0.2-1.7,0.7c-0.5,0.5-0.7,1-0.7,1.7c0,0.6,0.2,1.2,0.7,1.6c0.5,0.5,1,0.7,1.7,0.7h4.7V16.8z"/>
				<path id="Fill-22" class="st0" d="M186.5,15.6l4.3,6.3c0.1,0.2,0.2,0.4,0.2,0.7c0,0.8-0.4,1.2-1.2,1.2c-0.4,0-0.8-0.2-1-0.5
					l-3.7-5.5l-3.7,5.6c-0.2,0.3-0.6,0.5-1,0.5c-0.3,0-0.6-0.1-0.8-0.3c-0.2-0.2-0.3-0.5-0.3-0.8c0-0.2,0.1-0.5,0.2-0.7l4.3-6.4
					l-4.3-6.4c-0.1-0.2-0.2-0.4-0.2-0.7c0-0.8,0.4-1.2,1.2-1.2c0.4,0,0.8,0.2,1,0.5l3.7,5.5l3.7-5.5c0.2-0.3,0.6-0.5,1-0.5
					c0.8,0,1.2,0.4,1.2,1.1c0,0.2-0.1,0.5-0.2,0.7L186.5,15.6z"/>
				<path id="Fill-23" class="st0" d="M193.9,21.4c0-0.8,0.4-1.2,1.2-1.2c0.8,0,1.2,0.4,1.2,1.2v1.2c0,0.8-0.4,1.2-1.2,1.2
					c-0.8,0-1.2-0.4-1.2-1.2V21.4z"/>
				<path id="Fill-24" class="st0" d="M201.5,12.1v7c0,0.6,0.2,1.2,0.7,1.6c0.5,0.5,1,0.7,1.7,0.7h3.5c0.8,0,1.2,0.4,1.2,1.2
					s-0.4,1.2-1.2,1.2h-3.5c-1.3,0-2.4-0.5-3.3-1.4c-0.9-0.9-1.4-2-1.4-3.3v-7c0-1.3,0.5-2.4,1.4-3.3c0.9-0.9,2-1.4,3.3-1.4h3.5
					c0.8,0,1.2,0.4,1.2,1.2c0,0.8-0.4,1.2-1.2,1.2h-3.5c-0.7,0-1.2,0.2-1.7,0.7C201.7,10.9,201.5,11.4,201.5,12.1"/>
				<path id="Fill-25" class="st0" d="M219.9,9.8h-7.2c-0.8,0-1.2-0.4-1.2-1.2c0-0.8,0.4-1.2,1.2-1.2h9.4c0.8,0,1.2,0.4,1.2,1.2
					c0,0.2-0.1,0.5-0.2,0.7l-8.2,12.1h7.2c0.8,0,1.2,0.4,1.2,1.2c0,0.8-0.4,1.2-1.2,1.2h-9.4c-0.8,0-1.2-0.4-1.2-1.1
					c0-0.2,0.1-0.5,0.2-0.7L219.9,9.8z"/>
			</g>
			<g id="Group-29">
				<g id="Clip-28">
				</g>
				<defs>
					<filter id="Adobe_OpacityMaskFilter" filterUnits="userSpaceOnUse" x="0" y="0.2" width="56.8" height="51.2">
						<feColorMatrix  type="matrix" values="1 0 0 0 0  0 1 0 0 0  0 0 1 0 0  0 0 0 1 0"/>
					</filter>
				</defs>
				<mask maskUnits="userSpaceOnUse" x="0" y="0.2" width="56.8" height="51.2" id="mask-2_1_">
					<g class="st1">
						<polygon id="path-1_1_" class="st0" points="0,0.2 56.8,0.2 56.8,51.3 0,51.3 						"/>
					</g>
				</mask>
				<path id="Fill-27" class="st2" d="M31.3,51.4c-0.5,0-1-0.4-1.2-0.9L19.5,6.6L13.9,32c-0.1,0.5-0.6,0.9-1.2,0.9H1.2
					C0.5,33,0,32.4,0,31.8s0.5-1.2,1.2-1.2h10.6l6.5-29.5c0.1-0.5,0.6-0.9,1.1-0.9c0,0,0,0,0,0c0.5,0,1,0.4,1.2,0.9l10.7,43.6
					l5.5-27.5c0.1-0.5,0.3-0.7,0.8-0.8c0.5-0.1,0.7,0.5,0.8,0.7l6.5,13.4h10.9c0.7,0,1.2,0.5,1.2,1.2S56.3,33,55.6,33H44
					c-0.5,0-0.9-0.3-1.1-0.7l-4.8-9.9l-5.6,28.1C32.4,51,31.9,51.4,31.3,51.4C31.3,51.4,31.3,51.4,31.3,51.4"/>
			</g>
		</g>
	</g>
</g>
<g>
	<path class="st3" d="M159.4,26.4l-1.2,4.5c-1.5,5.4-5,8.5-10.2,8.5c-5.2,0-7.1-3.1-5.6-8.5l4.7-17.6c1.5-5.4,5-8.5,10.2-8.5
		s7.1,3.1,5.6,8.5l-0.9,3.3h-5l1-3.6c0.6-2.4-0.2-3.3-1.9-3.3c-1.7,0-3,0.9-3.6,3.3l-4.9,18.3c-0.6,2.4,0.2,3.3,1.9,3.3
		c1.7,0,3-0.9,3.6-3.3l1.3-4.8H159.4z"/>
	<path class="st3" d="M168.3,5.2h5.3L164.6,39h-5.3L168.3,5.2z"/>
	<path class="st3" d="M179.7,14.5L173.2,39h-4.8l9.1-33.8h6.7l0,20.2l5.4-20.2h4.7L185.2,39h-5.5L179.7,14.5z"/>
	<path class="st3" d="M199.6,19.4h7.3l-1.3,4.8h-7.3l-2.7,9.9h9.2l-1.3,4.8H189l9.1-33.8h14.5l-1.3,4.8h-9.2L199.6,19.4z"/>
</g>
</svg>
